<svg width="150" height="150" viewBox="0 0 150 150" fill="none" xmlns="http://www.w3.org/2000/svg">
<circle cx="75" cy="75" r="75" fill="#A9D6E5"/>
<path d="M44.0859 25H41.2422V34.5703H29.8672V25H26.9688V47.6133H29.8672V37.4414H41.2422V47.6133H44.0859V25ZM38.3984 22.5391C40.2396 22.5391 41.9076 22.8125 43.4023 23.3594C44.8971 23.9062 46.1641 24.6536 47.2031 25.6016C48.2604 26.5495 49.0716 27.6615 49.6367 28.9375C50.2018 30.1953 50.4844 31.5352 50.4844 32.957V49.582C50.4844 51.0039 50.2018 52.3529 49.6367 53.6289C49.0716 54.8867 48.2604 55.9896 47.2031 56.9375C46.1641 57.8854 44.8971 58.6328 43.4023 59.1797C41.9076 59.7266 40.2396 60 38.3984 60H29.9766C28.1354 60 26.4674 59.7266 24.9727 59.1797C23.4779 58.6328 22.2018 57.8854 21.1445 56.9375C20.1055 55.9896 19.3034 54.8867 18.7383 53.6289C18.1732 52.3529 17.8906 51.0039 17.8906 49.582V32.957C17.8906 31.5352 18.1732 30.1953 18.7383 28.9375C19.3034 27.6615 20.1055 26.5495 21.1445 25.6016C22.2018 24.6536 23.4779 23.9062 24.9727 23.3594C26.4674 22.8125 28.1354 22.5391 29.9766 22.5391H38.3984ZM84.5547 25H81.7109V34.5703H70.3359V25H67.4375V47.6133H70.3359V37.4414H81.7109V47.6133H84.5547V25ZM78.8672 22.5391C80.7083 22.5391 82.3763 22.8125 83.8711 23.3594C85.3659 23.9062 86.6328 24.6536 87.6719 25.6016C88.7292 26.5495 89.5404 27.6615 90.1055 28.9375C90.6706 30.1953 90.9531 31.5352 90.9531 32.957V49.582C90.9531 51.0039 90.6706 52.3529 90.1055 53.6289C89.5404 54.8867 88.7292 55.9896 87.6719 56.9375C86.6328 57.8854 85.3659 58.6328 83.8711 59.1797C82.3763 59.7266 80.7083 60 78.8672 60H70.4453C68.6042 60 66.9362 59.7266 65.4414 59.1797C63.9466 58.6328 62.6706 57.8854 61.6133 56.9375C60.5742 55.9896 59.7721 54.8867 59.207 53.6289C58.6419 52.3529 58.3594 51.0039 58.3594 49.582V32.957C58.3594 31.5352 58.6419 30.1953 59.207 28.9375C59.7721 27.6615 60.5742 26.5495 61.6133 25.6016C62.6706 24.6536 63.9466 23.9062 65.4414 23.3594C66.9362 22.8125 68.6042 22.5391 70.4453 22.5391H78.8672ZM119.336 22.5391C121.177 22.5391 122.845 22.8125 124.34 23.3594C125.835 23.9062 127.102 24.6536 128.141 25.6016C129.198 26.5495 130.009 27.6615 130.574 28.9375C131.139 30.1953 131.422 31.5352 131.422 32.957V49.582C131.422 51.0039 131.139 52.3529 130.574 53.6289C130.009 54.8867 129.198 55.9896 128.141 56.9375C127.102 57.8854 125.835 58.6328 124.34 59.1797C122.845 59.7266 121.177 60 119.336 60H110.914C109.073 60 107.405 59.7266 105.91 59.1797C104.415 58.6328 103.139 57.8854 102.082 56.9375C101.043 55.9896 100.241 54.8867 99.6758 53.6289C99.1107 52.3529 98.8281 51.0039 98.8281 49.582V32.957C98.8281 31.5352 99.1107 30.1953 99.6758 28.9375C100.241 27.6615 101.043 26.5495 102.082 25.6016C103.139 24.6536 104.415 23.9062 105.91 23.3594C107.405 22.8125 109.073 22.5391 110.914 22.5391H119.336ZM124.477 39.0547L124.094 36.7031L122.344 34.9805L119.5 34.6797H113.375L111.707 34.3516C111.616 34.0417 111.552 33.7682 111.516 33.5312C111.479 33.276 111.415 33.0117 111.324 32.7383V29.8672L111.707 28.2539L113.512 27.8984H120.457L123.027 28.418L123.684 25.4375L120.512 25H113.32L110.586 25.3828L108.809 27.1328L108.453 29.4297V33.1758L108.809 35.4727L110.586 37.1953L113.32 37.5508H119.5L121.168 37.8242C121.223 38.0977 121.286 38.3529 121.359 38.5898C121.432 38.8268 121.496 39.0729 121.551 39.3281V42.9102C121.514 43.1471 121.451 43.4023 121.359 43.6758C121.286 43.9492 121.223 44.2044 121.168 44.4414L119.391 44.7148H112.609L109.93 44.2773L109.246 47.2305L112.445 47.6133H119.555L122.344 47.2852L124.094 45.5625L124.477 43.2109V39.0547Z" fill="#C74E4E"/>
<path d="M54.0537 66.25H45.8164L42.2959 66.6602L40.1426 68.8477L39.6299 71.7188V89.082L40.1426 91.9531L42.3643 94.1064L45.8164 94.5166H54.0537L58.0527 94.0381L57.1982 90.3467L53.9854 90.8936H46.0215L43.7656 90.5518L43.2871 88.501V72.0605L43.6289 70.1807L46.0215 69.8047H53.8486L57.3691 70.3857L58.0527 66.7285L54.0537 66.25ZM54.498 63.1738C56.7995 63.1738 58.8844 63.5156 60.7529 64.1992C62.6214 64.8828 64.2051 65.8171 65.5039 67.002C66.8255 68.1868 67.8395 69.5768 68.5459 71.1719C69.2523 72.7441 69.6055 74.4189 69.6055 76.1963V96.9775C69.6055 98.7549 69.2523 100.441 68.5459 102.036C67.8395 103.608 66.8255 104.987 65.5039 106.172C64.2051 107.357 62.6214 108.291 60.7529 108.975C58.8844 109.658 56.7995 110 54.498 110H43.9707C41.6693 110 39.5843 109.658 37.7158 108.975C35.8473 108.291 34.2523 107.357 32.9307 106.172C31.6318 104.987 30.6292 103.608 29.9229 102.036C29.2165 100.441 28.8633 98.7549 28.8633 96.9775V76.1963C28.8633 74.4189 29.2165 72.7441 29.9229 71.1719C30.6292 69.5768 31.6318 68.1868 32.9307 67.002C34.2523 65.8171 35.8473 64.8828 37.7158 64.1992C39.5843 63.5156 41.6693 63.1738 43.9707 63.1738H54.498ZM105.084 63.1738C107.385 63.1738 109.47 63.5156 111.339 64.1992C113.207 64.8828 114.791 65.8171 116.09 67.002C117.411 68.1868 118.425 69.5768 119.132 71.1719C119.838 72.7441 120.191 74.4189 120.191 76.1963V96.9775C120.191 98.7549 119.838 100.441 119.132 102.036C118.425 103.608 117.411 104.987 116.09 106.172C114.791 107.357 113.207 108.291 111.339 108.975C109.47 109.658 107.385 110 105.084 110H94.5566C92.2552 110 90.1702 109.658 88.3018 108.975C86.4333 108.291 84.8382 107.357 83.5166 106.172C82.2178 104.987 81.2152 103.608 80.5088 102.036C79.8024 100.441 79.4492 98.7549 79.4492 96.9775V76.1963C79.4492 74.4189 79.8024 72.7441 80.5088 71.1719C81.2152 69.5768 82.2178 68.1868 83.5166 67.002C84.8382 65.8171 86.4333 64.8828 88.3018 64.1992C90.1702 63.5156 92.2552 63.1738 94.5566 63.1738H105.084ZM111.51 83.8184L111.031 80.8789L108.844 78.7256L105.289 78.3496H97.6328L95.5479 77.9395C95.4339 77.5521 95.3542 77.2103 95.3086 76.9141C95.263 76.5951 95.1833 76.2646 95.0693 75.9229V72.334L95.5479 70.3174L97.8037 69.873H106.485L109.698 70.5225L110.519 66.7969L106.554 66.25H97.5645L94.1465 66.7285L91.9248 68.916L91.4805 71.7871V76.4697L91.9248 79.3408L94.1465 81.4941L97.5645 81.9385H105.289L107.374 82.2803C107.442 82.6221 107.522 82.9411 107.613 83.2373C107.704 83.5335 107.784 83.8411 107.853 84.1602V88.6377C107.807 88.9339 107.727 89.2529 107.613 89.5947C107.522 89.9365 107.442 90.2555 107.374 90.5518L105.152 90.8936H96.6758L93.3262 90.3467L92.4717 94.0381L96.4707 94.5166H105.357L108.844 94.1064L111.031 91.9531L111.51 89.0137V83.8184Z" fill="#C74E4E"/>
<path d="M46.0215 116.5H42.7266L41.3184 116.664L40.457 117.539L40.252 118.688V125.633L40.457 126.781L41.3457 127.643L42.7266 127.807H46.0215L47.6211 127.615L47.2793 126.139L45.9941 126.357H42.8086L41.9062 126.221L41.7148 125.4V118.824L41.8516 118.072L42.8086 117.922H45.9395L47.3477 118.154L47.6211 116.691L46.0215 116.5ZM46.1992 115.27C47.1198 115.27 47.9538 115.406 48.7012 115.68C49.4486 115.953 50.082 116.327 50.6016 116.801C51.1302 117.275 51.5358 117.831 51.8184 118.469C52.1009 119.098 52.2422 119.768 52.2422 120.479V128.791C52.2422 129.502 52.1009 130.176 51.8184 130.814C51.5358 131.443 51.1302 131.995 50.6016 132.469C50.082 132.943 49.4486 133.316 48.7012 133.59C47.9538 133.863 47.1198 134 46.1992 134H41.9883C41.0677 134 40.2337 133.863 39.4863 133.59C38.7389 133.316 38.1009 132.943 37.5723 132.469C37.0527 131.995 36.6517 131.443 36.3691 130.814C36.0866 130.176 35.9453 129.502 35.9453 128.791V120.479C35.9453 119.768 36.0866 119.098 36.3691 118.469C36.6517 117.831 37.0527 117.275 37.5723 116.801C38.1009 116.327 38.7389 115.953 39.4863 115.68C40.2337 115.406 41.0677 115.27 41.9883 115.27H46.1992ZM68.0195 126.357H63.8223V116.5H62.373V127.807H68.0195V126.357ZM66.4336 115.27C67.3542 115.27 68.1882 115.406 68.9355 115.68C69.6829 115.953 70.3164 116.327 70.8359 116.801C71.3646 117.275 71.7702 117.831 72.0527 118.469C72.3353 119.098 72.4766 119.768 72.4766 120.479V128.791C72.4766 129.502 72.3353 130.176 72.0527 130.814C71.7702 131.443 71.3646 131.995 70.8359 132.469C70.3164 132.943 69.6829 133.316 68.9355 133.59C68.1882 133.863 67.3542 134 66.4336 134H62.2227C61.3021 134 60.4681 133.863 59.7207 133.59C58.9733 133.316 58.3353 132.943 57.8066 132.469C57.2871 131.995 56.8861 131.443 56.6035 130.814C56.321 130.176 56.1797 129.502 56.1797 128.791V120.479C56.1797 119.768 56.321 119.098 56.6035 118.469C56.8861 117.831 57.2871 117.275 57.8066 116.801C58.3353 116.327 58.9733 115.953 59.7207 115.68C60.4681 115.406 61.3021 115.27 62.2227 115.27H66.4336ZM86.668 115.27C87.5885 115.27 88.4225 115.406 89.1699 115.68C89.9173 115.953 90.5508 116.327 91.0703 116.801C91.599 117.275 92.0046 117.831 92.2871 118.469C92.5697 119.098 92.7109 119.768 92.7109 120.479V128.791C92.7109 129.502 92.5697 130.176 92.2871 130.814C92.0046 131.443 91.599 131.995 91.0703 132.469C90.5508 132.943 89.9173 133.316 89.1699 133.59C88.4225 133.863 87.5885 134 86.668 134H82.457C81.5365 134 80.7025 133.863 79.9551 133.59C79.2077 133.316 78.5697 132.943 78.041 132.469C77.5215 131.995 77.1204 131.443 76.8379 130.814C76.5553 130.176 76.4141 129.502 76.4141 128.791V120.479C76.4141 119.768 76.5553 119.098 76.8379 118.469C77.1204 117.831 77.5215 117.275 78.041 116.801C78.5697 116.327 79.2077 115.953 79.9551 115.68C80.7025 115.406 81.5365 115.27 82.457 115.27H86.668ZM89.4023 116.5H87.9531V125.455C87.9349 125.574 87.903 125.701 87.8574 125.838C87.821 125.975 87.7845 126.102 87.748 126.221L86.8594 126.357H83.3594L82.457 126.221L82.2656 125.4V116.5H80.8438V125.605L81.0078 126.781L81.8965 127.643L83.2773 127.807H86.9414L88.3359 127.643L89.2109 126.781L89.4023 125.605V116.5ZM106.902 115.27C107.823 115.27 108.657 115.406 109.404 115.68C110.152 115.953 110.785 116.327 111.305 116.801C111.833 117.275 112.239 117.831 112.521 118.469C112.804 119.098 112.945 119.768 112.945 120.479V128.791C112.945 129.502 112.804 130.176 112.521 130.814C112.239 131.443 111.833 131.995 111.305 132.469C110.785 132.943 110.152 133.316 109.404 133.59C108.657 133.863 107.823 134 106.902 134H102.691C101.771 134 100.937 133.863 100.189 133.59C99.4421 133.316 98.804 132.943 98.2754 132.469C97.7559 131.995 97.3548 131.443 97.0723 130.814C96.7897 130.176 96.6484 129.502 96.6484 128.791V120.479C96.6484 119.768 96.7897 119.098 97.0723 118.469C97.3548 117.831 97.7559 117.275 98.2754 116.801C98.804 116.327 99.4421 115.953 100.189 115.68C100.937 115.406 101.771 115.27 102.691 115.27H106.902ZM109.104 123.473L108.844 122.461L107.75 121.982L108.844 121.572L109.104 120.533V118.715L108.912 117.566L108.051 116.691L106.643 116.5H100.9V127.807H106.643L108.051 127.643L108.912 126.781L109.104 125.633V123.473ZM107.463 126.221L106.561 126.357H102.363V122.748H106.588L107.518 122.857L107.654 123.664V125.482L107.463 126.221ZM107.463 121.148L106.561 121.312H102.363V117.949H106.561L107.518 118.1L107.463 118.906L107.654 120.424L107.463 121.148Z" fill="#C74E4E"/>
<circle cx="75" cy="75" r="75" fill="#A9D6E5"/>
<path d="M44.0859 25H41.2422V34.5703H29.8672V25H26.9688V47.6133H29.8672V37.4414H41.2422V47.6133H44.0859V25ZM38.3984 22.5391C40.2396 22.5391 41.9076 22.8125 43.4023 23.3594C44.8971 23.9062 46.1641 24.6536 47.2031 25.6016C48.2604 26.5495 49.0716 27.6615 49.6367 28.9375C50.2018 30.1953 50.4844 31.5352 50.4844 32.957V49.582C50.4844 51.0039 50.2018 52.3529 49.6367 53.6289C49.0716 54.8867 48.2604 55.9896 47.2031 56.9375C46.1641 57.8854 44.8971 58.6328 43.4023 59.1797C41.9076 59.7266 40.2396 60 38.3984 60H29.9766C28.1354 60 26.4674 59.7266 24.9727 59.1797C23.4779 58.6328 22.2018 57.8854 21.1445 56.9375C20.1055 55.9896 19.3034 54.8867 18.7383 53.6289C18.1732 52.3529 17.8906 51.0039 17.8906 49.582V32.957C17.8906 31.5352 18.1732 30.1953 18.7383 28.9375C19.3034 27.6615 20.1055 26.5495 21.1445 25.6016C22.2018 24.6536 23.4779 23.9062 24.9727 23.3594C26.4674 22.8125 28.1354 22.5391 29.9766 22.5391H38.3984ZM84.5547 25H81.7109V34.5703H70.3359V25H67.4375V47.6133H70.3359V37.4414H81.7109V47.6133H84.5547V25ZM78.8672 22.5391C80.7083 22.5391 82.3763 22.8125 83.8711 23.3594C85.3659 23.9062 86.6328 24.6536 87.6719 25.6016C88.7292 26.5495 89.5404 27.6615 90.1055 28.9375C90.6706 30.1953 90.9531 31.5352 90.9531 32.957V49.582C90.9531 51.0039 90.6706 52.3529 90.1055 53.6289C89.5404 54.8867 88.7292 55.9896 87.6719 56.9375C86.6328 57.8854 85.3659 58.6328 83.8711 59.1797C82.3763 59.7266 80.7083 60 78.8672 60H70.4453C68.6042 60 66.9362 59.7266 65.4414 59.1797C63.9466 58.6328 62.6706 57.8854 61.6133 56.9375C60.5742 55.9896 59.7721 54.8867 59.207 53.6289C58.6419 52.3529 58.3594 51.0039 58.3594 49.582V32.957C58.3594 31.5352 58.6419 30.1953 59.207 28.9375C59.7721 27.6615 60.5742 26.5495 61.6133 25.6016C62.6706 24.6536 63.9466 23.9062 65.4414 23.3594C66.9362 22.8125 68.6042 22.5391 70.4453 22.5391H78.8672ZM119.336 22.5391C121.177 22.5391 122.845 22.8125 124.34 23.3594C125.835 23.9062 127.102 24.6536 128.141 25.6016C129.198 26.5495 130.009 27.6615 130.574 28.9375C131.139 30.1953 131.422 31.5352 131.422 32.957V49.582C131.422 51.0039 131.139 52.3529 130.574 53.6289C130.009 54.8867 129.198 55.9896 128.141 56.9375C127.102 57.8854 125.835 58.6328 124.34 59.1797C122.845 59.7266 121.177 60 119.336 60H110.914C109.073 60 107.405 59.7266 105.91 59.1797C104.415 58.6328 103.139 57.8854 102.082 56.9375C101.043 55.9896 100.241 54.8867 99.6758 53.6289C99.1107 52.3529 98.8281 51.0039 98.8281 49.582V32.957C98.8281 31.5352 99.1107 30.1953 99.6758 28.9375C100.241 27.6615 101.043 26.5495 102.082 25.6016C103.139 24.6536 104.415 23.9062 105.91 23.3594C107.405 22.8125 109.073 22.5391 110.914 22.5391H119.336ZM124.477 39.0547L124.094 36.7031L122.344 34.9805L119.5 34.6797H113.375L111.707 34.3516C111.616 34.0417 111.552 33.7682 111.516 33.5312C111.479 33.276 111.415 33.0117 111.324 32.7383V29.8672L111.707 28.2539L113.512 27.8984H120.457L123.027 28.418L123.684 25.4375L120.512 25H113.32L110.586 25.3828L108.809 27.1328L108.453 29.4297V33.1758L108.809 35.4727L110.586 37.1953L113.32 37.5508H119.5L121.168 37.8242C121.223 38.0977 121.286 38.3529 121.359 38.5898C121.432 38.8268 121.496 39.0729 121.551 39.3281V42.9102C121.514 43.1471 121.451 43.4023 121.359 43.6758C121.286 43.9492 121.223 44.2044 121.168 44.4414L119.391 44.7148H112.609L109.93 44.2773L109.246 47.2305L112.445 47.6133H119.555L122.344 47.2852L124.094 45.5625L124.477 43.2109V39.0547Z" fill="#C74E4E"/>
<path d="M54.0537 66.25H45.8164L42.2959 66.6602L40.1426 68.8477L39.6299 71.7188V89.082L40.1426 91.9531L42.3643 94.1064L45.8164 94.5166H54.0537L58.0527 94.0381L57.1982 90.3467L53.9854 90.8936H46.0215L43.7656 90.5518L43.2871 88.501V72.0605L43.6289 70.1807L46.0215 69.8047H53.8486L57.3691 70.3857L58.0527 66.7285L54.0537 66.25ZM54.498 63.1738C56.7995 63.1738 58.8844 63.5156 60.7529 64.1992C62.6214 64.8828 64.2051 65.8171 65.5039 67.002C66.8255 68.1868 67.8395 69.5768 68.5459 71.1719C69.2523 72.7441 69.6055 74.4189 69.6055 76.1963V96.9775C69.6055 98.7549 69.2523 100.441 68.5459 102.036C67.8395 103.608 66.8255 104.987 65.5039 106.172C64.2051 107.357 62.6214 108.291 60.7529 108.975C58.8844 109.658 56.7995 110 54.498 110H43.9707C41.6693 110 39.5843 109.658 37.7158 108.975C35.8473 108.291 34.2523 107.357 32.9307 106.172C31.6318 104.987 30.6292 103.608 29.9229 102.036C29.2165 100.441 28.8633 98.7549 28.8633 96.9775V76.1963C28.8633 74.4189 29.2165 72.7441 29.9229 71.1719C30.6292 69.5768 31.6318 68.1868 32.9307 67.002C34.2523 65.8171 35.8473 64.8828 37.7158 64.1992C39.5843 63.5156 41.6693 63.1738 43.9707 63.1738H54.498ZM105.084 63.1738C107.385 63.1738 109.47 63.5156 111.339 64.1992C113.207 64.8828 114.791 65.8171 116.09 67.002C117.411 68.1868 118.425 69.5768 119.132 71.1719C119.838 72.7441 120.191 74.4189 120.191 76.1963V96.9775C120.191 98.7549 119.838 100.441 119.132 102.036C118.425 103.608 117.411 104.987 116.09 106.172C114.791 107.357 113.207 108.291 111.339 108.975C109.47 109.658 107.385 110 105.084 110H94.5566C92.2552 110 90.1702 109.658 88.3018 108.975C86.4333 108.291 84.8382 107.357 83.5166 106.172C82.2178 104.987 81.2152 103.608 80.5088 102.036C79.8024 100.441 79.4492 98.7549 79.4492 96.9775V76.1963C79.4492 74.4189 79.8024 72.7441 80.5088 71.1719C81.2152 69.5768 82.2178 68.1868 83.5166 67.002C84.8382 65.8171 86.4333 64.8828 88.3018 64.1992C90.1702 63.5156 92.2552 63.1738 94.5566 63.1738H105.084ZM111.51 83.8184L111.031 80.8789L108.844 78.7256L105.289 78.3496H97.6328L95.5479 77.9395C95.4339 77.5521 95.3542 77.2103 95.3086 76.9141C95.263 76.5951 95.1833 76.2646 95.0693 75.9229V72.334L95.5479 70.3174L97.8037 69.873H106.485L109.698 70.5225L110.519 66.7969L106.554 66.25H97.5645L94.1465 66.7285L91.9248 68.916L91.4805 71.7871V76.4697L91.9248 79.3408L94.1465 81.4941L97.5645 81.9385H105.289L107.374 82.2803C107.442 82.6221 107.522 82.9411 107.613 83.2373C107.704 83.5335 107.784 83.8411 107.853 84.1602V88.6377C107.807 88.9339 107.727 89.2529 107.613 89.5947C107.522 89.9365 107.442 90.2555 107.374 90.5518L105.152 90.8936H96.6758L93.3262 90.3467L92.4717 94.0381L96.4707 94.5166H105.357L108.844 94.1064L111.031 91.9531L111.51 89.0137V83.8184Z" fill="#C74E4E"/>
<path d="M46.0215 116.5H42.7266L41.3184 116.664L40.457 117.539L40.252 118.688V125.633L40.457 126.781L41.3457 127.643L42.7266 127.807H46.0215L47.6211 127.615L47.2793 126.139L45.9941 126.357H42.8086L41.9062 126.221L41.7148 125.4V118.824L41.8516 118.072L42.8086 117.922H45.9395L47.3477 118.154L47.6211 116.691L46.0215 116.5ZM46.1992 115.27C47.1198 115.27 47.9538 115.406 48.7012 115.68C49.4486 115.953 50.082 116.327 50.6016 116.801C51.1302 117.275 51.5358 117.831 51.8184 118.469C52.1009 119.098 52.2422 119.768 52.2422 120.479V128.791C52.2422 129.502 52.1009 130.176 51.8184 130.814C51.5358 131.443 51.1302 131.995 50.6016 132.469C50.082 132.943 49.4486 133.316 48.7012 133.59C47.9538 133.863 47.1198 134 46.1992 134H41.9883C41.0677 134 40.2337 133.863 39.4863 133.59C38.7389 133.316 38.1009 132.943 37.5723 132.469C37.0527 131.995 36.6517 131.443 36.3691 130.814C36.0866 130.176 35.9453 129.502 35.9453 128.791V120.479C35.9453 119.768 36.0866 119.098 36.3691 118.469C36.6517 117.831 37.0527 117.275 37.5723 116.801C38.1009 116.327 38.7389 115.953 39.4863 115.68C40.2337 115.406 41.0677 115.27 41.9883 115.27H46.1992ZM68.0195 126.357H63.8223V116.5H62.373V127.807H68.0195V126.357ZM66.4336 115.27C67.3542 115.27 68.1882 115.406 68.9355 115.68C69.6829 115.953 70.3164 116.327 70.8359 116.801C71.3646 117.275 71.7702 117.831 72.0527 118.469C72.3353 119.098 72.4766 119.768 72.4766 120.479V128.791C72.4766 129.502 72.3353 130.176 72.0527 130.814C71.7702 131.443 71.3646 131.995 70.8359 132.469C70.3164 132.943 69.6829 133.316 68.9355 133.59C68.1882 133.863 67.3542 134 66.4336 134H62.2227C61.3021 134 60.4681 133.863 59.7207 133.59C58.9733 133.316 58.3353 132.943 57.8066 132.469C57.2871 131.995 56.8861 131.443 56.6035 130.814C56.321 130.176 56.1797 129.502 56.1797 128.791V120.479C56.1797 119.768 56.321 119.098 56.6035 118.469C56.8861 117.831 57.2871 117.275 57.8066 116.801C58.3353 116.327 58.9733 115.953 59.7207 115.68C60.4681 115.406 61.3021 115.27 62.2227 115.27H66.4336ZM86.668 115.27C87.5885 115.27 88.4225 115.406 89.1699 115.68C89.9173 115.953 90.5508 116.327 91.0703 116.801C91.599 117.275 92.0046 117.831 92.2871 118.469C92.5697 119.098 92.7109 119.768 92.7109 120.479V128.791C92.7109 129.502 92.5697 130.176 92.2871 130.814C92.0046 131.443 91.599 131.995 91.0703 132.469C90.5508 132.943 89.9173 133.316 89.1699 133.59C88.4225 133.863 87.5885 134 86.668 134H82.457C81.5365 134 80.7025 133.863 79.9551 133.59C79.2077 133.316 78.5697 132.943 78.041 132.469C77.5215 131.995 77.1204 131.443 76.8379 130.814C76.5553 130.176 76.4141 129.502 76.4141 128.791V120.479C76.4141 119.768 76.5553 119.098 76.8379 118.469C77.1204 117.831 77.5215 117.275 78.041 116.801C78.5697 116.327 79.2077 115.953 79.9551 115.68C80.7025 115.406 81.5365 115.27 82.457 115.27H86.668ZM89.4023 116.5H87.9531V125.455C87.9349 125.574 87.903 125.701 87.8574 125.838C87.821 125.975 87.7845 126.102 87.748 126.221L86.8594 126.357H83.3594L82.457 126.221L82.2656 125.4V116.5H80.8438V125.605L81.0078 126.781L81.8965 127.643L83.2773 127.807H86.9414L88.3359 127.643L89.2109 126.781L89.4023 125.605V116.5ZM106.902 115.27C107.823 115.27 108.657 115.406 109.404 115.68C110.152 115.953 110.785 116.327 111.305 116.801C111.833 117.275 112.239 117.831 112.521 118.469C112.804 119.098 112.945 119.768 112.945 120.479V128.791C112.945 129.502 112.804 130.176 112.521 130.814C112.239 131.443 111.833 131.995 111.305 132.469C110.785 132.943 110.152 133.316 109.404 133.59C108.657 133.863 107.823 134 106.902 134H102.691C101.771 134 100.937 133.863 100.189 133.59C99.4421 133.316 98.804 132.943 98.2754 132.469C97.7559 131.995 97.3548 131.443 97.0723 130.814C96.7897 130.176 96.6484 129.502 96.6484 128.791V120.479C96.6484 119.768 96.7897 119.098 97.0723 118.469C97.3548 117.831 97.7559 117.275 98.2754 116.801C98.804 116.327 99.4421 115.953 100.189 115.68C100.937 115.406 101.771 115.27 102.691 115.27H106.902ZM109.104 123.473L108.844 122.461L107.75 121.982L108.844 121.572L109.104 120.533V118.715L108.912 117.566L108.051 116.691L106.643 116.5H100.9V127.807H106.643L108.051 127.643L108.912 126.781L109.104 125.633V123.473ZM107.463 126.221L106.561 126.357H102.363V122.748H106.588L107.518 122.857L107.654 123.664V125.482L107.463 126.221ZM107.463 121.148L106.561 121.312H102.363V117.949H106.561L107.518 118.1L107.463 118.906L107.654 120.424L107.463 121.148Z" fill="#C74E4E"/>
</svg>
